# xmcd CD database file
#
# Track frame offsets:
#	150
#	18110
#	35365
#	46075
#	57782
#	76160
#	93577
#	120067
#	146350
#	164122
#	172397
#	187200
#
# Disc length: 3630 seconds
#
# Revision: 2
# Processed by: cddbd v1.5.1PL2 Copyright (c) Steve Scherf et al.
# Submitted via: CDex 1.51
#
DISCID=970e2c0c
DTITLE=NEW ROTEeKA - よっしゃ、よっしゃ、よっしゃーぁ
DYEAR=1990
DGENRE=Punk
TTITLE0=悲しきラガー
TTITLE1=Oh!忙し
TTITLE2=Fuckin’Girl
TTITLE3=流れて
TTITLE4=君だけ好きだから
TTITLE5=Papillion
TTITLE6=まむしのブキ
TTITLE7=修豚男歌
TTITLE8=悲しきピエロ
TTITLE9=ハイリ・ハイリホー・カーニバル
TTITLE10=パニック・ナイト
TTITLE11=夏・渚・17才
EXTD=YEAR: 1990
EXTT0=
EXTT1=
EXTT2=
EXTT3=
EXTT4=
EXTT5=
EXTT6=
EXTT7=
EXTT8=
EXTT9=
EXTT10=
EXTT11=
PLAYORDER=
